<svg width="462" height="195" viewBox="0 0 462 195" fill="none" xmlns="http://www.w3.org/2000/svg">
<path d="M97 138.2C90.44 138.2 84.84 137 80.2 134.6C75.56 132.2 71.44 128.72 67.84 124.16L75.52 116.48C78.16 120.16 81.2 122.96 84.64 124.88C88.08 126.72 92.32 127.64 97.36 127.64C102.32 127.64 106.28 126.56 109.24 124.4C112.28 122.24 113.8 119.28 113.8 115.52C113.8 112.4 113.08 109.88 111.64 107.96C110.2 106.04 108.24 104.48 105.76 103.28C103.36 102 100.72 100.88 97.84 99.92C94.96 98.88 92.08 97.8 89.2 96.68C86.32 95.48 83.68 94.04 81.28 92.36C78.88 90.6 76.92 88.32 75.4 85.52C73.96 82.72 73.24 79.2 73.24 74.96C73.24 70.24 74.36 66.24 76.6 62.96C78.92 59.6 82.04 57.04 85.96 55.28C89.96 53.44 94.44 52.52 99.4 52.52C104.84 52.52 109.72 53.6 114.04 55.76C118.36 57.84 121.88 60.6 124.6 64.04L116.92 71.72C114.44 68.84 111.76 66.68 108.88 65.24C106.08 63.8 102.84 63.08 99.16 63.08C94.68 63.08 91.12 64.08 88.48 66.08C85.84 68 84.52 70.72 84.52 74.24C84.52 77.04 85.24 79.32 86.68 81.08C88.2 82.76 90.16 84.2 92.56 85.4C94.96 86.6 97.6 87.72 100.48 88.76C103.44 89.72 106.36 90.8 109.24 92C112.12 93.2 114.76 94.72 117.16 96.56C119.56 98.4 121.48 100.8 122.92 103.76C124.44 106.64 125.2 110.28 125.2 114.68C125.2 122.04 122.64 127.8 117.52 131.96C112.48 136.12 105.64 138.2 97 138.2Z" fill="url(#paint0_linear_3_58)"/>
<g filter="url(#filter0_d_3_58)">
<path fill-rule="evenodd" clip-rule="evenodd" d="M185.254 118.799C192.898 139.637 194.407 162.215 180.311 176.311C166.215 190.407 143.637 188.898 122.799 181.254C101.095 173.292 77.0389 157.358 55.3337 135.653C33.6284 113.947 17.6946 89.8918 9.73275 68.1875C2.08851 47.3491 0.579329 24.7718 14.6756 10.6755C28.7718 -3.42071 51.3491 -1.91153 72.1875 5.73271C93.8919 13.6946 117.948 29.6284 139.653 51.3336C161.358 73.0389 177.292 97.0945 185.254 118.799ZM173.24 169.24C192.619 149.861 174.415 100.238 132.582 58.4047C90.748 16.571 41.1255 -1.63222 21.7467 17.7466C2.36782 37.1254 20.5711 86.748 62.4047 128.582C104.238 170.415 153.861 188.619 173.24 169.24ZM72.1875 181.254C51.3491 188.898 28.7718 190.407 14.6755 176.311C0.579288 162.215 2.08847 139.637 9.73271 118.799C17.6946 97.0946 33.6284 73.0389 55.3336 51.3337C77.0389 29.6285 101.094 13.6947 122.799 5.73279C143.637 -1.91145 166.215 -3.42063 180.311 10.6756C194.407 24.7719 192.898 47.3492 185.254 68.1876C177.292 89.8919 161.358 113.948 139.653 135.653C117.947 157.358 93.8918 173.292 72.1875 181.254ZM21.7466 169.24C41.1254 188.619 90.748 170.415 132.582 128.582C174.415 86.7481 192.619 37.1255 173.24 17.7467C153.861 -1.63214 104.238 16.5711 62.4047 58.4048C20.571 100.238 2.36778 149.861 21.7466 169.24Z" fill="url(#paint1_linear_3_58)"/>
</g>
<path d="M220.6 122L202.84 102.56L220.44 84H229.16L209.56 104.48L209.88 100.32L229.88 122H220.6ZM196.28 122V64.88H203.48V122H196.28ZM285.147 122.32L268.667 84H276.667L288.907 114H286.347L299.227 84H307.227L289.467 122.32H285.147ZM274.267 137.92L285.467 114.96L289.467 122.32L282.267 137.92H274.267ZM357.776 122V78.32C357.776 75.4933 358.39 73.04 359.616 70.96C360.843 68.8267 362.523 67.1467 364.656 65.92C366.843 64.6933 369.376 64.08 372.256 64.08C374.443 64.08 376.336 64.4533 377.936 65.2C379.536 65.9467 381.003 67.04 382.336 68.48L377.616 73.12C376.923 72.3733 376.15 71.8133 375.296 71.44C374.443 71.0133 373.403 70.8 372.176 70.8C369.883 70.8 368.096 71.4667 366.816 72.8C365.59 74.1333 364.976 75.9733 364.976 78.32V122H357.776ZM348.416 90.56V84H377.056V90.56H348.416ZM438.902 122.8C435.115 122.8 431.702 121.947 428.662 120.24C425.622 118.48 423.222 116.107 421.462 113.12C419.702 110.133 418.822 106.747 418.822 102.96C418.822 99.2267 419.675 95.8667 421.382 92.88C423.142 89.8933 425.489 87.5467 428.422 85.84C431.409 84.08 434.742 83.2 438.422 83.2C441.942 83.2 445.035 84 447.702 85.6C450.422 87.2 452.529 89.4133 454.022 92.24C455.569 95.0667 456.342 98.2667 456.342 101.84C456.342 102.373 456.315 102.96 456.262 103.6C456.209 104.187 456.102 104.88 455.942 105.68H423.862V99.68H452.102L449.462 102C449.462 99.44 449.009 97.28 448.102 95.52C447.195 93.7067 445.915 92.32 444.262 91.36C442.609 90.3467 440.609 89.84 438.262 89.84C435.809 89.84 433.649 90.3733 431.782 91.44C429.915 92.5067 428.475 94 427.462 95.92C426.449 97.84 425.942 100.107 425.942 102.72C425.942 105.387 426.475 107.733 427.542 109.76C428.609 111.733 430.129 113.28 432.102 114.4C434.075 115.467 436.342 116 438.902 116C441.035 116 442.982 115.627 444.742 114.88C446.555 114.133 448.102 113.013 449.382 111.52L454.022 116.24C452.209 118.373 449.969 120 447.302 121.12C444.689 122.24 441.889 122.8 438.902 122.8Z" fill="url(#paint2_linear_3_58)"/>
<defs>
<filter id="filter0_d_3_58" x="0" y="0" width="194.986" height="194.986" filterUnits="userSpaceOnUse" color-interpolation-filters="sRGB">
<feFlood flood-opacity="0" result="BackgroundImageFix"/>
<feColorMatrix in="SourceAlpha" type="matrix" values="0 0 0 0 0 0 0 0 0 0 0 0 0 0 0 0 0 0 127 0" result="hardAlpha"/>
<feOffset dy="4"/>
<feGaussianBlur stdDeviation="2"/>
<feComposite in2="hardAlpha" operator="out"/>
<feColorMatrix type="matrix" values="0 0 0 0 0 0 0 0 0 0 0 0 0 0 0 0 0 0 0.25 0"/>
<feBlend mode="normal" in2="BackgroundImageFix" result="effect1_dropShadow_3_58"/>
<feBlend mode="normal" in="SourceGraphic" in2="effect1_dropShadow_3_58" result="shape"/>
</filter>
<linearGradient id="paint0_linear_3_58" x1="97.5" y1="17" x2="97.5" y2="168" gradientUnits="userSpaceOnUse">
<stop stop-color="#88108A"/>
<stop offset="0.57" stop-color="#9A2E9C"/>
<stop offset="1" stop-color="#470B48"/>
</linearGradient>
<linearGradient id="paint1_linear_3_58" x1="97.4932" y1="0" x2="97.4932" y2="186.986" gradientUnits="userSpaceOnUse">
<stop stop-color="#88108A"/>
<stop offset="0.57" stop-color="#9A2E9C"/>
<stop offset="1" stop-color="#470B48"/>
</linearGradient>
<linearGradient id="paint2_linear_3_58" x1="326.5" y1="42" x2="326.5" y2="143" gradientUnits="userSpaceOnUse">
<stop stop-color="#88108A"/>
<stop offset="0.57" stop-color="#9A2E9C"/>
<stop offset="1" stop-color="#470B48"/>
</linearGradient>
</defs>
</svg>
